<svg xmlns="http://www.w3.org/2000/svg" viewBox="0 0 198.09 38.33"><defs><style>.cls-1{fill:#bf7e04;}.cls-2{fill:#faaf3b;}.cls-3{font-size:21px;fill:#fdb813;font-family:Montserrat-Medium, Montserrat;font-weight:500;}.cls-4{letter-spacing:-0.01em;}.cls-5{letter-spacing:-0.01em;}.cls-6{letter-spacing:0.01em;}.cls-7{letter-spacing:-0.03em;}.cls-8{letter-spacing:-0.01em;}.cls-9{letter-spacing:-0.03em;}.cls-10{letter-spacing:-0.01em;}.cls-11{letter-spacing:-0.01em;}.cls-12{font-size:14px;}.cls-13{letter-spacing:0em;}.cls-14{letter-spacing:-0.02em;}.cls-15{letter-spacing:-0.01em;}.cls-16{letter-spacing:-0.02em;}.cls-17{letter-spacing:0em;}.cls-18{letter-spacing:-0.02em;}.cls-19{letter-spacing:0em;}.cls-20{letter-spacing:-0.01em;}.cls-21{letter-spacing:-0.02em;}.cls-22{letter-spacing:-0.02em;}.cls-23{letter-spacing:-0.01em;}.cls-24{letter-spacing:-0.01em;}.cls-25{letter-spacing:-0.01em;}.cls-26{letter-spacing:-0.01em;}.cls-27{letter-spacing:-0.02em;}</style></defs><g id="Layer_2" data-name="Layer 2"><g id="Layer_3" data-name="Layer 3"><path class="cls-1" d="M0,34.64H10l5-10a11.39,11.39,0,0,1-6.07-7.84Z"/><path class="cls-1" d="M40,34.64H30l-5-10a11.41,11.41,0,0,0,6.07-7.84Z"/><polygon class="cls-2" points="19.99 34.64 14.99 24.65 19.99 14.65 24.99 24.65 19.99 34.64"/><path class="cls-1" d="M20,34.64l-5-10a16,16,0,0,0,10,0Z"/><path class="cls-1" d="M25,14a.51.51,0,0,1-.49-.39,4.68,4.68,0,0,0-9.09,0,.5.5,0,0,1-1-.23,5.67,5.67,0,0,1,11,0,.49.49,0,0,1-.37.6Z"/><path class="cls-1" d="M26.57,10.41a.53.53,0,0,1-.41-.2,7.57,7.57,0,0,0-12.31,0A.5.5,0,1,1,13,9.58,8.59,8.59,0,0,1,27,9.62a.5.5,0,0,1-.12.7A.52.52,0,0,1,26.57,10.41Z"/><path class="cls-1" d="M28.25,7.6a.54.54,0,0,1-.37-.16,10.74,10.74,0,0,0-15.78,0,.51.51,0,0,1-.71,0,.5.5,0,0,1,0-.71,11.74,11.74,0,0,1,17.25,0,.49.49,0,0,1,0,.7A.51.51,0,0,1,28.25,7.6Z"/><text class="cls-3" transform="translate(46.79 17.85)"><tspan class="cls-4">M</tspan><tspan class="cls-5" x="19.76" y="0">a</tspan><tspan class="cls-6" x="32.16" y="0">s</tspan><tspan class="cls-7" x="42.86" y="0">t</tspan><tspan class="cls-8" x="50.95" y="0">e</tspan><tspan class="cls-9" x="63.49" y="0">r</tspan><tspan class="cls-10" x="71.52" y="0">I</tspan><tspan class="cls-11" x="77.85" y="0">S</tspan><tspan x="90.73" y="0">S</tspan><tspan class="cls-12"><tspan class="cls-13" x="0" y="16.8">A</tspan><tspan class="cls-14" x="10.24" y="16.8">r</tspan><tspan class="cls-15" x="15.66" y="16.8">c</tspan><tspan class="cls-16" x="23.46" y="16.8">h</tspan><tspan class="cls-17" x="32.7" y="16.8">i</tspan><tspan class="cls-18" x="36.55" y="16.8">v</tspan><tspan class="cls-19" x="44.11" y="16.8">e </tspan><tspan class="cls-20" x="56.45" y="16.8">M</tspan><tspan class="cls-21" x="69.66" y="16.8">a</tspan><tspan class="cls-22" x="77.78" y="16.8">n</tspan><tspan class="cls-23" x="87.09" y="16.8">a</tspan><tspan class="cls-24" x="95.3" y="16.8">g</tspan><tspan class="cls-25" x="104.83" y="16.8">e</tspan><tspan class="cls-26" x="113.23" y="16.8">m</tspan><tspan class="cls-25" x="127.89" y="16.8">e</tspan><tspan class="cls-27" x="136.29" y="16.8">n</tspan><tspan x="145.5" y="16.8">t</tspan></tspan></text></g></g></svg>